<?xml version="1.0" encoding="UTF-8"?>
<svg id="Layer_2" xmlns="http://www.w3.org/2000/svg" viewBox="0 0 1670.73 993.53">
  <defs>
    <style>
      .cls-1 {
        fill: #e33b3b;
      }

      .cls-2 {
        fill: #24baff;
      }

      .cls-3 {
        fill: #ffe95d;
      }
    </style>
  </defs>
  <path class="cls-3" d="M649.19,191.65c10.69,22.68,17.42,54.74-25.69,131.41-34.78,61.88-63.06,107.14-95.02,137.47-12.18,11.55-14.21,30.18-5.09,44.27,13.13,20.28,24.34,40.41,40.38,60.31,29.67,36.82,67.72,72.5,112.47,104,63.51,44.71,98.26,60.9,109.05,83.58,10.8,22.71-15.73,67.33-38.44,78.13-22.71,10.8-30.75,17.49-78.88-.28-47.57-17.57-89.38-48.84-131.8-91.66-4.36-4.41-8.55-8.62-12.56-12.66-13.27-13.33-35.9-2.56-33.93,16.14.62,5.87,1.27,12.02,1.96,18.45,6.46,59.93,10.97,89.28-12.06,160.08-15.85,48.76-26.85,50.57-49.56,61.37-22.71,10.8-79.2,5.67-90-17.04-10.8-22.71,4.54-62.28,9.11-139.78,3.82-64.82.11-106.65-9.72-152.88-5.57-26.15-14.67-48.41-22.34-72.58-4.98-15.7-20.07-25.95-36.47-24.44-41.95,3.86-92.54-2.87-157.85-14.12-86.69-14.93-107.31-40.38-118.16-62.99s-2.09-49.22,20.04-60.42c23.57-11.93,35.35.92,86.31,12.48,13.81,3.13,83.72,13.82,128.41,5.07,19.34-3.78,33.76-13.6,47.52-17.72-57.27-2.79-111.06-37.33-135.32-94.36-31.36-73.72-.46-160.4,70.45-197.67,78.42-41.22,174.6-8.67,212.29,70.56,25.71,54.05,17.37,115.53-16.39,160.19,12.95-8.68,32.03-14.98,49.91-29.85,34.99-29.15,70.81-90.13,77.09-102.82,23.19-46.82,20.65-64.07,44.78-74.83,22.65-10.1,48.94.15,59.51,22.58Z"/>
  <path class="cls-2" d="M1021.54,191.32c-10.69,22.68-17.42,54.74,25.69,131.41,34.78,61.88,63.06,107.14,95.02,137.47,12.18,11.55,14.21,30.18,5.09,44.27-13.13,20.28-24.34,40.41-40.38,60.31-29.67,36.82-67.72,72.5-112.47,104-63.51,44.71-98.26,60.9-109.05,83.58-10.8,22.71,15.73,67.33,38.44,78.13,22.71,10.8,30.75,17.49,78.88-.28,47.57-17.57,89.38-48.84,131.8-91.66,4.36-4.41,8.55-8.62,12.56-12.66,13.27-13.33,35.9-2.56,33.93,16.14-.62,5.87-1.27,12.02-1.96,18.45-6.46,59.93-10.97,89.28,12.06,160.08,15.85,48.76,26.85,50.57,49.56,61.37,22.71,10.8,79.2,5.67,90-17.04,10.8-22.71-4.54-62.28-9.11-139.78-3.82-64.82-.11-106.65,9.72-152.88,5.57-26.15,14.67-48.41,22.34-72.58,4.98-15.7,20.07-25.95,36.47-24.44,41.95,3.86,92.54-2.87,157.85-14.12,86.69-14.93,107.31-40.38,118.16-62.99,10.73-22.35,2.09-49.22-20.04-60.42-23.57-11.93-35.35.92-86.31,12.48-13.81,3.13-83.72,13.82-128.41,5.07-19.34-3.78-33.76-13.6-47.52-17.72,57.27-2.79,111.06-37.33,135.32-94.36,31.36-73.72.46-160.4-70.45-197.67-78.42-41.22-174.6-8.67-212.29,70.56-25.71,54.05-17.37,115.53,16.39,160.19-12.95-8.68-32.03-14.98-49.91-29.85-34.99-29.15-70.81-90.13-77.09-102.82-23.19-46.82-20.65-64.07-44.78-74.83-22.65-10.1-48.94.15-59.51,22.58Z"/>
  <path class="cls-1" d="M1193.65,225.01c-.09,25.08-7.78,56.91-79.65,107.64-57.99,40.94-102.97,69.67-144.86,83.32-15.96,5.2-25.79,21.15-23.61,37.79,3.14,23.96,4.62,46.95,10.56,71.8,10.98,46,30.01,94.55,56.89,142.23,38.15,67.66,62.58,97.2,62.58,122.32s-43.12,54.05-68.27,54.05-35.28,2.59-71.12-34.14c-35.42-36.3-59.74-82.49-79.65-139.39-2.05-5.86-4.02-11.46-5.91-16.82-6.26-17.73-31.32-17.73-37.58,0-1.97,5.57-4.02,11.4-6.15,17.5-19.91,56.89-28.45,85.34-79.65,139.39-35.26,37.22-45.97,34.14-71.12,34.14s-73.96-28.9-73.96-54.05,30.86-54.29,68.27-122.32c31.29-56.89,45.91-96.26,56.89-142.23,6.2-26.01,7.54-50.02,11-75.14,2.25-16.32-6.98-32.06-22.44-37.74-39.54-14.54-82.34-42.34-136.48-80.56-71.87-50.72-79.56-82.56-79.65-107.64-.09-24.8,19.26-45.34,44.05-45.95,26.41-.65,31.53,16.01,72.58,48.34,11.12,8.76,69.66,48.44,113.78,59.74,19.09,4.89,36.33,2.22,50.52,4.41-50.52-27.12-84.26-81.42-81.67-143.34C682.38,68.33,747.5,3.33,827.55.13c88.52-3.54,161.4,67.17,161.4,154.9,0,59.85-33.94,111.79-83.6,137.62,15.42-2.28,35.36.23,57.89-5.52,44.12-11.29,102.66-50.98,113.78-59.74,41.05-32.33,46.17-48.99,72.58-48.34,24.79.61,44.14,21.16,44.05,45.95Z"/>
</svg>