<?xml version="1.0" encoding="UTF-8"?>
<svg id="Layer_1" xmlns="http://www.w3.org/2000/svg" viewBox="0 0 1033.32 944.28">
  <defs>
    <style>
      .cls-1 {
        fill: #e33b3b;
      }

      .cls-2 {
        fill: #430b0b;
        font-family: Simple-Kind-Of-Girl, 'Simple Kind Of Girl';
        font-size: 215.09px;
      }

      .cls-3 {
        fill: #24baff;
      }

      .cls-4 {
        fill: #ffe95d;
      }
    </style>
  </defs>
  <text class="cls-2" transform="translate(71.67 696.45) rotate(48.7)"><tspan x="0" y="0">P</tspan></text>
  <text class="cls-2" transform="translate(182.48 806.93) rotate(29.17)"><tspan x="0" y="0">r</tspan></text>
  <text class="cls-2" transform="translate(280.35 858.62) rotate(15.46)"><tspan x="0" y="0">e</tspan></text>
  <text class="cls-2" transform="translate(409.56 890.64) rotate(5.11)"><tspan x="0" y="0">s</tspan></text>
  <text class="cls-2" transform="translate(518.92 899.02) rotate(-2.48)"><tspan x="0" y="0">c</tspan></text>
  <text class="cls-2" transform="translate(633.68 892.89) rotate(-11.68)"><tspan x="0" y="0">h</tspan></text>
  <text class="cls-2" transform="translate(758.89 864.67) rotate(-24.91)"><tspan x="0" y="0">o</tspan></text>
  <text class="cls-2" transform="translate(884.15 800.96) rotate(-43.76)"><tspan x="0" y="0">o</tspan></text>
  <text class="cls-2" transform="translate(975.19 701.42) rotate(-59.02)"><tspan x="0" y="0">l</tspan></text>
  <text class="cls-2" transform="translate(163.31 411.65) rotate(-63.37)"><tspan x="0" y="0">M</tspan></text>
  <text class="cls-2" transform="translate(231.29 293) rotate(-45.69)"><tspan x="0" y="0">i</tspan></text>
  <text class="cls-2" transform="translate(245.36 273.91) rotate(-34.47)"><tspan x="0" y="0">s</tspan></text>
  <text class="cls-2" transform="translate(312.6 227.26) rotate(-20.69)"><tspan x="0" y="0">s</tspan></text>
  <text class="cls-2" transform="translate(394.07 197.66) rotate(-10.84)"><tspan x="0" y="0"> </tspan></text>
  <text class="cls-2" transform="translate(455.7 183.84) rotate(-1.37)"><tspan x="0" y="0">J</tspan></text>
  <text class="cls-2" transform="translate(567.5 180.77) rotate(9.81)"><tspan x="0" y="0">e</tspan></text>
  <text class="cls-2" transform="translate(669.79 198.98) rotate(21.72)"><tspan x="0" y="0">r</tspan></text>
  <text class="cls-2" transform="translate(743.94 230.57) rotate(30.54)"><tspan x="0" y="0">i</tspan></text>
  <text class="cls-2" transform="translate(768.88 244.78) rotate(37.53)"><tspan x="0" y="0">’</tspan></text>
  <text class="cls-2" transform="translate(800.51 264.77) rotate(50.51)"><tspan x="0" y="0">s</tspan></text>
  <path class="cls-4" d="M450.26,364.17c4.52,9.58,7.36,23.12-10.85,55.51-14.69,26.14-26.64,45.26-40.14,58.07-5.14,4.88-6,12.75-2.15,18.7,5.55,8.57,10.28,17.07,17.06,25.47,12.53,15.55,28.6,30.62,47.51,43.93,26.83,18.89,41.51,25.72,46.07,35.3s-6.64,28.44-16.24,33c-9.59,4.56-12.99,7.39-33.32-.12s-37.75-20.63-55.67-38.72c-1.84-1.86-3.61-3.64-5.31-5.35-5.6-5.63-15.16-1.08-14.33,6.82.26,2.48.54,5.08.83,7.79,2.73,25.31,4.63,37.71-5.09,67.62-6.7,20.59-11.34,21.36-20.93,25.92-9.59,4.56-33.46,2.39-38.02-7.2s1.92-26.31,3.85-59.05c1.61-27.38.05-45.05-4.1-64.58-2.35-11.05-6.2-20.45-9.44-30.66-2.1-6.63-8.48-10.96-15.41-10.33-17.72,1.63-39.09-1.21-66.68-5.97-36.62-6.31-45.33-17.06-49.91-26.61s-.88-20.79,8.46-25.52c9.96-5.04,14.93.39,36.46,5.27,5.83,1.32,35.36,5.84,54.24,2.14,8.17-1.6,14.26-5.74,20.07-7.48-24.19-1.18-46.91-15.77-57.16-39.86-13.25-31.14-.2-67.75,29.76-83.5,33.12-17.41,73.75-3.66,89.67,29.81,10.86,22.83,7.34,48.8-6.92,67.67,5.47-3.67,13.53-6.33,21.08-12.61,14.78-12.31,29.91-38.07,32.57-43.43,9.79-19.78,8.72-27.07,18.92-31.61,9.57-4.26,20.67.06,25.14,9.54Z"/>
  <path class="cls-3" d="M607.54,364.03c-4.52,9.58-7.36,23.12,10.85,55.51,14.69,26.14,26.64,45.26,40.14,58.07,5.14,4.88,6,12.75,2.15,18.7-5.55,8.57-10.28,17.07-17.06,25.47-12.53,15.55-28.6,30.62-47.51,43.93-26.83,18.89-41.51,25.72-46.07,35.3-4.56,9.59,6.64,28.44,16.24,33,9.59,4.56,12.99,7.39,33.32-.12,20.1-7.42,37.75-20.63,55.67-38.72,1.84-1.86,3.61-3.64,5.31-5.35,5.6-5.63,15.16-1.08,14.33,6.82-.26,2.48-.54,5.08-.83,7.79-2.73,25.31-4.63,37.71,5.09,67.62,6.7,20.59,11.34,21.36,20.93,25.92s33.46,2.39,38.02-7.2c4.56-9.59-1.92-26.31-3.85-59.05-1.61-27.38-.05-45.05,4.1-64.58,2.35-11.05,6.2-20.45,9.44-30.66,2.1-6.63,8.48-10.96,15.41-10.33,17.72,1.63,39.09-1.21,66.68-5.97,36.62-6.31,45.33-17.06,49.91-26.61,4.53-9.44.88-20.79-8.46-25.52-9.96-5.04-14.93.39-36.46,5.27-5.83,1.32-35.36,5.84-54.24,2.14-8.17-1.6-14.26-5.74-20.07-7.48,24.19-1.18,46.91-15.77,57.16-39.86,13.25-31.14.2-67.75-29.76-83.5-33.12-17.41-73.75-3.66-89.67,29.81-10.86,22.83-7.34,48.8,6.92,67.67-5.47-3.67-13.53-6.33-21.08-12.61-14.78-12.31-29.91-38.07-32.57-43.43-9.79-19.78-8.72-27.07-18.92-31.61-9.57-4.26-20.67.06-25.14,9.54Z"/>
  <path class="cls-1" d="M680.24,378.26c-.04,10.59-3.29,24.04-33.64,45.47-24.5,17.29-43.5,29.43-61.19,35.2-6.74,2.2-10.89,8.93-9.97,15.96,1.33,10.12,1.95,19.83,4.46,30.33,4.64,19.43,12.68,39.94,24.03,60.08,16.11,28.58,26.44,41.06,26.44,51.67s-18.22,22.83-28.84,22.83-14.9,1.09-30.04-14.42c-14.96-15.33-25.23-34.85-33.64-58.88-.86-2.47-1.7-4.84-2.5-7.11-2.64-7.49-13.23-7.49-15.87,0-.83,2.35-1.7,4.82-2.6,7.39-8.41,24.03-12.02,36.05-33.64,58.88-14.89,15.72-19.42,14.42-30.04,14.42s-31.24-12.21-31.24-22.83,13.03-22.93,28.84-51.67c13.22-24.03,19.39-40.66,24.03-60.08,2.62-10.99,3.19-21.13,4.65-31.74.95-6.89-2.95-13.54-9.48-15.94-16.7-6.14-34.78-17.88-57.65-34.03-30.36-21.43-33.61-34.87-33.64-45.47-.04-10.47,8.13-19.15,18.61-19.41,11.16-.27,13.32,6.76,30.66,20.42,4.7,3.7,29.43,20.46,48.06,25.23,8.06,2.07,15.34.94,21.34,1.86-21.34-11.45-35.59-34.39-34.5-60.55,1.41-33.81,28.92-61.27,62.74-62.62,37.39-1.5,68.18,28.37,68.18,65.43,0,25.28-14.34,47.22-35.31,58.13,6.51-.96,14.94.1,24.45-2.33,18.64-4.77,43.37-21.53,48.06-25.23,17.34-13.65,19.5-20.69,30.66-20.42,10.47.26,18.64,8.94,18.61,19.41Z"/>
</svg>